<svg xmlns="http://www.w3.org/2000/svg" width="19" height="20" viewBox="0 0 19 20" fill="none">
  <path fill-rule="evenodd" clip-rule="evenodd" d="M8.60182 1.83337C8.96768 1.08658 10.0322 1.08665 10.3979 1.83349L12.2035 5.52021C12.3484 5.81615 12.6298 6.0217 12.9558 6.06971L17.0089 6.66672C17.8264 6.78714 18.1534 7.7909 17.5637 8.36973L14.6231 11.2558C14.3894 11.4852 14.2828 11.8145 14.3377 12.1373L15.0302 16.2055C15.1694 17.0235 14.3093 17.6454 13.5761 17.2569L9.96822 15.3451C9.67536 15.1899 9.32464 15.1899 9.03178 15.3451L5.42389 17.2569C4.69071 17.6454 3.83062 17.0235 3.96985 16.2055L4.66229 12.1373C4.71724 11.8145 4.61064 11.4852 4.37693 11.2558L1.4363 8.36969C0.846555 7.79087 1.17351 6.78712 1.99102 6.66669L6.04328 6.06971C6.36923 6.02169 6.65061 5.81621 6.79556 5.52034L8.60182 1.83337Z" fill="#FF5752"/>
</svg>
