<svg xmlns="http://www.w3.org/2000/svg" width="134" height="48" viewBox="0 0 134 48" fill="none">
  <path d="M63.6654 14.3398H58.1436V19.9764H63.6654V14.3398Z" fill="#EBF0F4"/>
  <path d="M63.6654 22.3535H58.1436V41.4451H63.6654V22.3535Z" fill="#EBF0F4"/>
  <path d="M102.512 20.8232C96.7156 20.8232 92.0469 25.1776 92.0469 31.3657C92.0469 36.8958 96.5023 41.7727 102.512 41.7727C108.522 41.7727 110.745 38.323 111.708 35.4443L109.338 34.646C107.878 36.9393 105.968 37.9408 103.228 37.786C100.195 37.6118 97.4929 35.7007 97.4266 32.135H112.234C112.921 25.2502 107.864 20.8184 102.512 20.8184M97.5688 28.9369C97.7536 26.6871 99.4268 24.6744 102.37 24.6744C105.314 24.6744 106.982 26.4936 107.172 28.9369H97.5735H97.5688Z" fill="#EBF0F4"/>
  <path d="M83.061 22.052C83.061 22.052 81.1651 20.8231 78.1079 20.8231C71.2826 20.8231 67.5713 25.4291 67.5713 31.3462C67.5713 37.2633 71.202 41.7726 76.9135 41.7726C79.4967 41.7726 81.9614 40.7082 83.061 39.097V41.4291H88.5592V14.3398H83.061V22.0471V22.052ZM83.061 31.2978V35.7732C82.5491 36.5183 80.9471 37.5149 78.4918 37.5149C74.7332 37.5149 73.0363 34.4862 73.0363 31.2978C73.0363 28.1094 74.7332 25.0807 78.4918 25.0807C80.9471 25.0807 82.5491 26.0774 83.061 26.8225V31.2978Z" fill="#EBF0F4"/>
  <path d="M124.78 20.8242C119.832 20.8242 116.945 23.3788 115.727 26.6059L118.102 27.3994C118.282 27.0655 119.836 23.8481 123.908 23.9787C125.249 24.0223 126.799 24.4626 127.681 25.914C128.122 26.6398 128.321 27.6897 128.321 28.9911C127.472 28.5896 125.804 28.1783 124.249 28.1783C118.059 28.1783 115.414 31.5989 115.414 35.5711C115.414 39.8336 119.888 42.093 123.666 41.7689C125.785 41.585 127.23 40.8883 128.325 39.8046V41.4302H133.44V28.3331C133.44 24.7916 130.705 20.8242 124.78 20.8242ZM128.325 37.1968C128.325 37.1968 127.197 38.4015 124.676 38.4015C121.6 38.4015 120.528 36.3017 120.528 34.947C120.528 33.5923 121.604 31.5989 124.676 31.5989C127.121 31.5989 128.325 32.4892 128.325 32.4892V37.1968Z" fill="#EBF0F4"/>
  <path d="M2.03813 27.994C2.03813 15.0469 12.3235 4.54793 25.0073 4.54793C32.8801 4.54793 39.8239 8.59268 43.9618 14.7566C40.7861 6.13487 32.6384 0 23.0829 0C10.7641 0 0.777344 10.1941 0.777344 22.7687C0.777344 25.5942 1.2845 28.2988 2.20877 30.7953C2.09975 29.876 2.03813 28.9422 2.03813 27.994Z" fill="#EBF0F4"/>
  <path d="M44.1511 15.4248L44.3833 16.9923C44.5587 18.1584 44.5729 19.3486 44.5729 20.563C44.5729 25.9963 42.7718 30.9942 39.7525 34.9857L36.3968 15.4248H30.8749C30.7564 17.7229 29.9411 25.9285 26.3057 32.673C22.7271 39.3159 17.7693 41.1012 14.9159 41.8656C18.2148 42.4075 30.0928 40.4722 32.6191 27.2494L34.5245 40.032C30.799 42.6446 26.2915 44.1783 21.4284 44.1783C11.7355 44.1783 3.43608 38.0918 -0.00976562 29.4556C2.35066 40.0707 11.6407 47.9957 22.7508 47.9957C34.6193 47.9957 44.4118 38.953 45.8953 27.2494L47.9998 41.4399H54.1189L49.6588 15.4199H44.1369L44.1511 15.4248Z" fill="#EBF0F4"/>
</svg>
