<svg width="120" height="22" viewBox="0 0 120 22" fill="none" xmlns="http://www.w3.org/2000/svg">
<path fill-rule="evenodd" clip-rule="evenodd" d="M24.8741 0.364369C27.7207 0.323864 30.4667 1.41577 32.5083 3.3999C33.4821 4.35219 34.2619 5.48442 34.8044 6.7338C35.3675 8.03063 35.6483 9.43239 35.6281 10.846C35.6372 12.2607 35.3569 13.6624 34.8044 14.9648C34.2525 16.2089 33.4739 17.3394 32.5083 18.2987C31.5293 19.2584 30.3667 20.0106 29.0901 20.5104C27.7564 21.0722 26.3211 21.3527 24.8741 21.3342H16.8701V0.364369H24.8741ZM27.5269 16.8652C28.3033 16.5578 29.003 16.084 29.5765 15.4772C30.133 14.8637 30.5726 14.1537 30.8738 13.3821C31.1915 12.5771 31.3501 11.718 31.3408 10.8525C31.352 9.96583 31.1935 9.08518 30.8738 8.25805C30.5868 7.4872 30.1454 6.78311 29.5765 6.18896C28.9921 5.58841 28.2958 5.10805 27.5269 4.77497C26.6829 4.43898 25.7825 4.26727 24.8741 4.26905H21.1186V17.3971H24.8741C25.7863 17.4128 26.6912 17.2314 27.5269 16.8652Z" fill="#EFF2F5"/>
<path d="M65.0284 0.363281V21.3201H60.7476V0.363281H65.0284Z" fill="#EFF2F5"/>
<path d="M84.9754 13.1086C84.3268 15.5149 82.6079 17.5646 79.1962 17.5646C74.7272 17.5646 73.3002 14.088 73.3002 10.8449C73.3002 7.6018 74.7337 4.1317 79.1832 4.1317C82.5949 4.1317 84.3267 6.16187 84.9624 8.5877H89.3471C88.4844 3.43768 84.6835 0 79.3519 0C73.2743 0 68.8442 4.44952 68.8442 10.8449C68.8442 17.2403 73.2548 21.6963 79.3519 21.6963C84.6835 21.6963 88.4844 18.2781 89.3471 13.128H84.9754V13.1086Z" fill="#EFF2F5"/>
<path d="M120 0.363281V21.3201H115.719V0.363281H120Z" fill="#EFF2F5"/>
<path d="M97.234 0.363281V8.89909H106.639V0.363281H110.92V21.3201H106.639V12.6222H97.234V21.3201H92.9531V0.363281H97.234Z" fill="#EFF2F5"/>
<path fill-rule="evenodd" clip-rule="evenodd" d="M6.41484 0.00586266C5.1461 0.00586266 3.90586 0.382086 2.85095 1.08696C1.79603 1.79183 0.973827 2.79369 0.488303 3.96584C0.00277943 5.138 -0.124256 6.42781 0.123262 7.67217C0.37078 8.91652 0.981734 10.0595 1.87886 10.9567C2.77599 11.8538 3.91901 12.4647 5.16336 12.7123C6.40772 12.9598 7.69753 12.8328 8.86969 12.3472C10.0418 11.8617 11.0437 11.0395 11.7486 9.98458C12.4534 8.92967 12.8297 7.68943 12.8297 6.42069C12.8305 5.57805 12.6652 4.7435 12.3431 3.96484C12.021 3.18617 11.5486 2.47866 10.9527 1.88282C10.3569 1.28698 9.64936 0.814498 8.8707 0.492425C8.09203 0.170352 7.25748 0.00500935 6.41484 0.00586266ZM6.41484 9.03462C5.89415 9.02823 5.38698 8.86798 4.95714 8.57405C4.5273 8.28011 4.194 7.86562 3.99915 7.38272C3.80431 6.89981 3.75664 6.37007 3.86213 5.86014C3.96762 5.35021 4.22157 4.88287 4.59202 4.51691C4.96248 4.15096 5.43288 3.90274 5.94406 3.80348C6.45525 3.70422 6.98436 3.75836 7.46485 3.95908C7.94534 4.1598 8.35573 4.49815 8.6444 4.93154C8.93306 5.36494 9.0871 5.87402 9.08714 6.39475C9.08716 6.74362 9.01803 7.08903 8.88374 7.41102C8.74946 7.733 8.55268 8.02518 8.30479 8.27066C8.0569 8.51613 7.76281 8.71004 7.43953 8.84117C7.11624 8.9723 6.77017 9.03805 6.42132 9.03462H6.41484Z" fill="#EFF2F5"/>
<path fill-rule="evenodd" clip-rule="evenodd" d="M52.9007 21.3201H57.441L50.3062 0.363281H43.7292L36.5166 21.3201H41.0569L42.4644 17.0133H51.4867L52.9007 21.3201ZM43.6838 13.3421L46.9983 3.31449L50.2868 13.3421H43.6838Z" fill="#EFF2F5"/>
</svg>
